<svg xmlns="http://www.w3.org/2000/svg" width="372.149" height="75.268" viewBox="0 0 372.149 75.268">
  <g id="Group_20" data-name="Group 20" transform="translate(-286.858 -256.858)">
    <g id="Group_15" data-name="Group 15" transform="translate(386.942 275.891)">
      <path id="Path_4" data-name="Path 4" d="M660.92,882.107H652.2V846.5h8.72Z" transform="translate(-652.2 -845.773)" fill="#131515"/>
      <path id="Path_5" data-name="Path 5" d="M670.975,860.307v21.8H662.4V846.5h8.865l13.08,22.091V846.5h8.575v35.607H684.2Z" transform="translate(-647.576 -845.773)" fill="#131515"/>
      <path id="Path_6" data-name="Path 6" d="M696.32,868.591v13.516H687.6V846.5h18.893v7.848H696.32v6.54h8.865v7.7Z" transform="translate(-636.152 -845.773)" fill="#131515"/>
      <path id="Path_7" data-name="Path 7" d="M702.2,864.457c0-10.319,7.412-18.457,18.6-18.457s18.6,8.139,18.6,18.457c0,10.464-7.412,18.457-18.6,18.457C709.612,883.06,702.2,874.921,702.2,864.457Zm9.156,0c0,5.959,3.924,10.319,9.592,10.319s9.592-4.36,9.592-10.319c0-5.813-3.924-10.319-9.592-10.319C715.135,854.139,711.356,858.644,711.356,864.457Z" transform="translate(-629.533 -846)" fill="#131515"/>
    </g>
    <g id="Group_16" data-name="Group 16" transform="translate(502.628 276.032)">
      <path id="Path_8" data-name="Path 8" d="M731.8,846.5h9.011a9.958,9.958,0,1,1,0,19.911h-6.395v15.7H731.8Zm9.011,17.44a7.557,7.557,0,1,0,0-15.115h-6.249V863.94h6.249Z" transform="translate(-731.8 -845.914)" fill="#131515"/>
      <path id="Path_9" data-name="Path 9" d="M749,846.5h2.616v35.607H749Z" transform="translate(-724.003 -845.914)" fill="#131515"/>
      <path id="Path_10" data-name="Path 10" d="M785.811,850.9l-1.744,1.744a15.134,15.134,0,0,0-11.045-4.215c-8.865,0-15.115,6.976-15.115,16.132,0,9.3,6.249,15.987,14.969,15.987,6.395,0,10.028-2.907,11.336-4.215v-8.865h-8.575V865.14h11.045V877.2a17.946,17.946,0,0,1-13.952,5.813c-10.173,0-17.731-7.848-17.731-18.312s7.557-18.6,17.876-18.6C779.852,845.956,784.067,849.008,785.811,850.9Z" transform="translate(-721.283 -846.097)" fill="#131515"/>
      <path id="Path_11" data-name="Path 11" d="M782.2,869.608V846.5h2.616v23.108c0,6.54,3.488,10.755,10.173,10.755,6.831,0,10.173-4.215,10.173-10.755V846.5h2.616v23.108c0,7.993-4.651,13.225-12.789,13.225C786.705,882.833,782.2,877.6,782.2,869.608Z" transform="translate(-708.952 -845.914)" fill="#131515"/>
      <path id="Path_12" data-name="Path 12" d="M803.5,865.975l3.052-1.889V846.5h2.616v16.132L816,858.417v2.761l-6.831,4.215v14.388h14.243v2.325H806.552v-15.26l-3.052,1.889Z" transform="translate(-699.296 -845.914)" fill="#131515"/>
      <path id="Path_13" data-name="Path 13" d="M826.212,869.317l-4.8,12.789H818.8L832.461,846.5h2.616l13.661,35.607h-2.616l-4.8-12.789Zm7.412-19.911-6.54,17.44h13.08Z" transform="translate(-692.36 -845.914)" fill="#131515"/>
    </g>
    <g id="Group_19" data-name="Group 19">
      <g id="Ellipse_23" transform="translate(286.858 256.858)">
        <g id="Group_17" data-name="Group 17">
          <circle id="Ellipse_32" data-name="Ellipse 32" cx="37.634" cy="37.634" r="37.634" fill="none"/>
        </g>
        <g id="Group_18" data-name="Group 18">
          <path id="Path_14" data-name="Path 14" d="M37.634,75.268A37.634,37.634,0,1,1,75.268,37.634,37.677,37.677,0,0,1,37.634,75.268Zm0-69.64A32.006,32.006,0,1,0,69.64,37.634,32.033,32.033,0,0,0,37.634,5.628Z" fill="#131515"/>
        </g>
      </g>
      <g id="Intersection_1" transform="translate(318.724 274.233)">
        <path id="Path_15" data-name="Path 15" d="M564.3,871.6v-1.337a4.548,4.548,0,0,0,2.04-.774,3.475,3.475,0,0,0,.844-2.673V850.286a3.815,3.815,0,0,0-.563-2.321,3.959,3.959,0,0,0-2.251-.914v-1.407H575.2v21.385a3.675,3.675,0,0,0,.563,2.392,5.718,5.718,0,0,0,2.04.844V871.6H564.3Zm3.728-31.444a4.362,4.362,0,0,1,3.095-7.457,4.365,4.365,0,0,1,3.1,1.266,4.416,4.416,0,0,1,0,6.19,4.137,4.137,0,0,1-3.1,1.266,4.089,4.089,0,0,1-3.095-1.266Z" transform="translate(-564.3 -832.7)" fill="#131515"/>
      </g>
    </g>
  </g>
</svg>
